<?xml version="1.0" encoding="UTF-8" standalone="no"?>
<!-- Created with Inkscape (http://www.inkscape.org/) -->

<svg
   width="48"
   height="48"
   viewBox="0 0 48 48"
   version="1.1"
   id="svg5"
   inkscape:version="1.1.1 (3bf5ae0d25, 2021-09-20)"
   sodipodi:docname="topo.svg"
   xmlns:inkscape="http://www.inkscape.org/namespaces/inkscape"
   xmlns:sodipodi="http://sodipodi.sourceforge.net/DTD/sodipodi-0.dtd"
   xmlns="http://www.w3.org/2000/svg"
   xmlns:svg="http://www.w3.org/2000/svg">
  <sodipodi:namedview
     id="namedview7"
     pagecolor="#ffffff"
     bordercolor="#666666"
     borderopacity="1.0"
     inkscape:pageshadow="2"
     inkscape:pageopacity="0.0"
     inkscape:pagecheckerboard="0"
     inkscape:document-units="px"
     showgrid="false"
     inkscape:zoom="8"
     inkscape:cx="11.875"
     inkscape:cy="33.875"
     inkscape:window-width="1600"
     inkscape:window-height="831"
     inkscape:window-x="0"
     inkscape:window-y="0"
     inkscape:window-maximized="1"
     inkscape:current-layer="layer1"
     showguides="false" />
  <defs
     id="defs2" />
  <g
     inkscape:label="Camada 1"
     inkscape:groupmode="layer"
     id="layer1">
    <path
       id="path1109"
       style="fill:#000000;fill-rule:evenodd;stroke-width:1"
       d="M 24 0.5 A 23.5 23.5 0 0 0 0.5 24 A 23.5 23.5 0 0 0 24 47.5 A 23.5 23.5 0 0 0 47.5 24 A 23.5 23.5 0 0 0 24 0.5 z M 23.962891 1.7871094 L 39.027344 17.1875 A 4.9390001 4.9390001 0 0 1 38.949219 24.171875 A 4.9390001 4.9390001 0 0 1 31.964844 24.09375 L 28.902344 20.962891 L 28.902344 41.273438 A 4.9390001 4.9390001 0 0 1 23.962891 46.212891 A 4.9390001 4.9390001 0 0 1 19.025391 41.273438 L 19.025391 20.962891 L 16.035156 24.019531 A 4.9390001 4.9390001 0 0 1 9.0507812 24.097656 A 4.9390001 4.9390001 0 0 1 8.9726562 17.113281 L 20.470703 5.359375 L 23.962891 1.7871094 z " />
  </g>
</svg>
